
<svg version="1.1" id="Calque_1" xmlns="http://www.w3.org/2000/svg" xmlns:xlink="http://www.w3.org/1999/xlink" x="0px" y="0px"
	 viewBox="0 0 66.8 34" style="enable-background:new 0 0 66.8 34;" xml:space="preserve">
<style type="text/css">
	.st0{display:none;opacity:0.3;fill:#E20101;stroke:#E20101;stroke-miterlimit:10;enable-background:new    ;}
	.st1{fill:none;stroke:#E20101;stroke-miterlimit:10;}
</style>
<path class="st0" d="M17.2,0.5h32.6c2.7,0,5.2,1.1,7.1,3l6.4,6.5c3.9,3.9,3.9,10.2,0,14.1l-6.4,6.5c-1.9,1.9-4.4,3-7.1,3H17.2
	c-2.6,0-5.1-1-7-2.9l-6.6-6.5c-4-3.9-4-10.4,0-14.3l6.6-6.5C12.1,1.5,14.6,0.5,17.2,0.5z"/>
<path class="st1" d="M17.1,0.5h32.6c2.7,0,5.2,1.1,7.1,3l6.4,6.5c3.9,3.9,3.9,10.2,0,14.1l-6.4,6.5c-1.9,1.9-4.4,3-7.1,3H17.1
	c-2.6,0-5.1-1-7-2.9l-6.6-6.5c-4-3.9-4-10.4,0-14.3l6.6-6.5C12,1.5,14.5,0.5,17.1,0.5z"/>
</svg>
